<?xml version="1.0" standalone="no"?><!DOCTYPE svg PUBLIC "-//W3C//DTD SVG 1.1//EN" "http://www.w3.org/Graphics/SVG/1.1/DTD/svg11.dtd"><svg t="1589786168311" class="icon" viewBox="0 0 1024 1024" version="1.1" xmlns="http://www.w3.org/2000/svg" p-id="36934" xmlns:xlink="http://www.w3.org/1999/xlink" width="200" height="200"><defs><style type="text/css"></style></defs><path d="M924.672 263.68L657.92 13.824C648.704 5.12 635.904 0 622.592 0h-435.2C129.536 0 82.944 47.616 82.944 105.984v811.52c0 58.368 47.104 105.984 104.448 105.984h649.216c57.856 0 104.448-47.616 104.448-105.984V301.568c0-14.336-5.632-28.16-16.384-37.888z m-299.008-138.24l192 179.712h-190.976c-0.512 0-1.024-0.512-1.024-1.024V125.44z m211.968 792.576c0 2.048-1.024 2.56-1.024 2.56H187.392s-1.024-0.512-1.024-2.56V105.984c0-2.048 1.024-2.56 1.024-2.56h337.92c-2.048 5.632-3.072 11.264-3.072 17.92v182.784c0 57.856 47.104 104.448 104.448 104.448h195.072c5.632 0 10.752-1.024 15.872-2.56v512z" p-id="36935"></path><path d="M718.848 739.328H300.032c-25.6 0-46.592 20.992-46.592 46.592s20.992 46.592 46.592 46.592h418.816c25.6 0 46.592-20.992 46.592-46.592s-20.992-46.592-46.592-46.592zM300.032 656.896h273.92c25.6 0 46.592-20.992 46.592-46.592s-20.992-46.592-46.592-46.592H300.032c-25.6 0-46.592 20.992-46.592 46.592s20.992 46.592 46.592 46.592z" p-id="36936"></path></svg>